#!OML:ASF F:\VICON\USERDATA\Patient Classification 1\PLAYGROUND\JustinFriday\JustinFriday.ASF
:FULLY-SPECIFIED
:DEGREES
1513
root 21.7297 18.0515 9.73769 23.0816 -69.8266 -25.3224
lowerback 13.1303 0.522385 6.03663
upperback 0.764144 1.7353 3.60515
thorax -6.50374 0.680558 0.0973759
lowerneck 1.9535 -13.7747 -10.5893
upperneck -1.92916 -18.6194 11.6921
head 1.20236 -9.3654 4.69916
rclavicle 6.2816e-014 2.04748e-014
rhumerus -22.3802 8.56164 -85.5147
rradius 53.6181
rwrist -18.0774
rhand -17.1726 -25.2208
rfingers 7.12502
rthumb 9.06878 -55.0058
lclavicle 6.2816e-014 2.04748e-014
lhumerus -38.3727 19.7514 67.8895
lradius 41.4854
lwrist 4.63069
lhand -28.4913 -10.5943
lfingers 7.12502
lthumb -1.86041 19.3773
rfemur -1.54078 -1.63528 37.6077
rtibia 15.9232
rfoot -8.51298 0.0484845
rtoes 25.3427
lfemur -19.7987 4.56823 -3.09334
ltibia 69.4676
lfoot -0.24096 -7.0779
ltoes 4.68566
1514
root 21.6304 18.0425 9.7889 23.803 -70.4709 -25.7345
lowerback 12.9572 0.659198 6.04156
upperback 0.733745 1.89907 3.48119
thorax -6.42777 0.761556 -0.0644072
lowerneck 1.61194 -14.7012 -7.61941
upperneck -3.14234 -19.6794 9.37469
head 0.527132 -9.8985 4.02366
rclavicle 3.28989e-014 -3.75703e-014
rhumerus -22.2912 9.66447 -85.3645
rradius 54.7846
rwrist -19.437
rhand -17.7129 -24.8113
rfingers 7.12502
rthumb 8.54744 -54.6183
lclavicle 3.28989e-014 -3.75703e-014
lhumerus -38.4372 20.0202 68.044
lradius 40.9655
lwrist 3.92168
lhand -28.6784 -10.3419
lfingers 7.12502
lthumb -2.04111 19.6281
rfemur -1.49631 -2.2421 37.3294
rtibia 16.0865
rfoot -8.96272 1.13497
rtoes 24.5234
lfemur -21.0233 4.33512 -3.43576
ltibia 69.0598
lfoot -1.16095 -6.53367
ltoes 4.74014
1515
root 21.5318 18.024 9.84292 24.7403 -71.0098 -26.485
lowerback 12.7577 0.719501 6.31034
upperback 0.845525 1.98166 3.32769
thorax -6.17807 0.800089 -0.388386
lowerneck 1.36133 -14.2796 -8.86772
upperneck -2.28703 -19.1801 10.1368
head 1.02885 -9.63774 4.42845
rclavicle 1.4064e-014 -4.37326e-015
rhumerus -21.8623 9.16658 -85.4144
rradius 56.1238
rwrist -19.15
rhand -17.7182 -24.8328
rfingers 7.12502
rthumb 8.54226 -54.64
lclavicle 1.4064e-014 -4.37326e-015
lhumerus -38.377 20.6715 67.9807
lradius 40.5654
lwrist 3.17253
lhand -28.3434 -10.1401
lfingers 7.12502
lthumb -1.71755 19.8327
rfemur -1.44791 -1.14179 37.389
rtibia 16.5898
rfoot -9.71416 0.436468
rtoes 24.5167
lfemur -22.0758 4.05679 -3.59732
ltibia 68.4961
lfoot -2.05184 -5.89634
ltoes 4.26656
1516
root 21.4316 18.0096 9.89398 26.6191 -71.6638 -28.2698
lowerback 12.7083 0.830872 6.59693
upperback 0.869245 2.16205 3.36033
thorax -6.10686 0.88141 -0.543849
lowerneck 1.28652 -13.9929 -9.74027
upperneck -1.84335 -18.8344 11.0695
head 1.21516 -9.45417 4.34864
rclavicle -4.008e-014 -4.49253e-014
rhumerus -21.4299 10.4505 -85.2487
rradius 56.5406
rwrist -19.913
rhand -18.4511 -24.1241
rfingers 7.12502
rthumb 7.83494 -53.959
lclavicle -4.008e-014 -4.49253e-014
lhumerus -38.6174 21.2716 67.9805
lradius 40.1162
lwrist 2.83762
lhand -28.4552 -10.2232
lfingers 7.12502
lthumb -1.82554 19.7488
rfemur -1.35224 -1.0272 37.5139
rtibia 17.0348
rfoot -10.0716 1.25201
rtoes 25.841
lfemur -22.8757 4.0008 -3.42209
ltibia 67.7974
lfoot -3.08143 -5.20895
ltoes 2.87117
1517
root 21.3333 17.994 9.9479 27.7372 -72.3452 -29.2042
lowerback 12.7073 0.919564 6.59495
upperback 0.825468 2.28177 3.34845
thorax -6.14595 0.938076 -0.576163
lowerneck 1.31064 -14.209 -9.31791
upperneck -2.22486 -19.091 10.8708
head 1.06424 -9.58793 4.24317
rclavicle -5.20319e-014 1.43125e-014
rhumerus -21.6211 11.0461 -85.0681
rradius 57.8529
rwrist -19.9599
rhand -18.6178 -24.6725
rfingers 7.12502
rthumb 7.67404 -54.5132
lclavicle -5.20319e-014 1.43125e-014
lhumerus -38.8947 21.5629 68.1248
lradius 39.4912
lwrist 2.75043
lhand -28.8648 -10.5707
lfingers 7.12502
lthumb -2.22118 19.3975
rfemur -1.19552 -0.650084 37.372
rtibia 17.3377
rfoot -10.331 1.59685
rtoes 24.8267
lfemur -23.74 3.80432 -3.6072
ltibia 66.9762
lfoot -3.95292 -4.47069
ltoes 1.01968
1518
root 21.2299 17.9753 9.99696 29.4423 -72.4542 -30.8938
lowerback 12.7139 0.828987 7.00426
upperback 0.850138 2.21867 3.44388
thorax -6.11564 0.895779 -0.691951
lowerneck 1.33099 -14.2312 -9.34706
upperneck -2.34459 -19.1183 11.0216
head 1.0465 -9.60473 4.29324
rclavicle 5.24543e-014 1.74931e-014
rhumerus -21.1791 12.762 -84.9174
rradius 58.5714
rwrist -21.0773
rhand -19.4592 -25.8188
rfingers 7.12502
rthumb 6.86186 -55.6876
lclavicle 5.24543e-014 1.74931e-014
lhumerus -39.0436 21.7784 68.2671
lradius 38.8454
lwrist 2.75404
lhand -29.0728 -10.4801
lfingers 7.12502
lthumb -2.42201 19.4859
rfemur -0.840849 0.0215189 37.8013
rtibia 17.4789
rfoot -10.6317 1.20097
rtoes 22.9662
lfemur -24.6177 3.21905 -3.22725
ltibia 66.0496
lfoot -4.43661 -3.88127
ltoes 2.62154
1519
root 21.1286 17.9618 10.048 30.8549 -72.7091 -32.2265
lowerback 12.7193 0.828494 7.29101
upperback 0.835769 2.25908 3.4692
thorax -6.12187 0.906209 -0.831609
lowerneck 1.41287 -14.2364 -9.27244
upperneck -2.39798 -19.1252 10.9499
head 1.00409 -9.61087 4.27295
rclavicle 1.81639e-014 -3.1408e-014
rhumerus -20.991 5.15209 -85.7881
rradius 59.0258
rwrist -14.7038
rhand -16.7364 -24.6569
rfingers 7.12502
rthumb 9.48972 -54.4232
lclavicle 1.81639e-014 -3.1408e-014
lhumerus -39.269 22.1907 68.3308
lradius 38.2855
lwrist 2.45208
lhand -29.208 -10.4303
lfingers 7.12502
lthumb -2.55261 19.5341
rfemur -0.517509 0.650951 37.9848
rtibia 17.5814
rfoot -10.866 1.16137
rtoes 22.5964
lfemur -25.4228 2.78896 -3.0516
ltibia 64.9639
lfoot -4.92414 -3.12577
ltoes 3.91093
1520
root 21.0299 17.9432 10.0942 32.774 -73.2142 -34.2035
lowerback 12.9486 0.989441 7.65092
upperback 0.877718 2.53817 3.42982
thorax -6.16973 1.02915 -1.12624
lowerneck 1.47777 -14.28 -8.97513
upperneck -2.52548 -19.1795 10.2932
head 0.959703 -9.64332 4.51821
rclavicle -3.50358e-015 -2.127e-014
rhumerus -20.8349 5.08079 -85.8081
rradius 59.8615
rwrist -15.3611
rhand -17.4798 -24.644
rfingers 7.12502
rthumb 8.77233 -54.4417
lclavicle -3.50358e-015 -2.127e-014
lhumerus -39.3437 22.7198 68.3293
lradius 37.649
lwrist 1.87294
lhand -29.1863 -10.6333
lfingers 7.12502
lthumb -2.53162 19.3314
rfemur 0.0402305 0.857608 38.125
rtibia 17.5081
rfoot -10.9439 1.62274
rtoes 21.8039
lfemur -25.9137 2.70994 -2.82602
ltibia 63.7478
lfoot -5.51019 -2.36432
ltoes 4.09354
1521
root 20.9291 17.9285 10.1426 33.4452 -73.4103 -34.8357
lowerback 13.0571 0.987789 7.91467
upperback 0.949138 2.57082 3.29572
thorax -6.1335 1.03838 -1.4225
lowerneck 1.31579 -14.3342 -8.61143
upperneck -2.64765 -19.2254 10.1481
head 0.895726 -9.66486 4.40143
rclavicle -5.86912e-014 3.57812e-015
rhumerus -20.7307 5.08567 -85.8163
rradius 60.5186
rwrist -15.8387
rhand -18.5533 -24.8435
rfingers 7.12502
rthumb 7.73631 -54.682
lclavicle -5.86912e-014 3.57812e-015
lhumerus -39.2056 23.0619 68.4254
lradius 36.9431
lwrist 1.69831
lhand -29.4326 -10.4678
lfingers 7.12502
lthumb -2.76953 19.494
rfemur 0.449653 0.565332 38.0455
rtibia 17.4574
rfoot -11.1409 2.0759
rtoes 20.9719
lfemur -26.5323 2.09371 -2.84524
ltibia 62.3376
lfoot -5.9804 -1.53389
ltoes 4.43497
1522
root 20.8214 17.9221 10.1811 35.4417 -73.9947 -36.5092
lowerback 12.9332 1.20225 7.80336
upperback 0.909924 2.82882 3.28128
thorax -6.09011 1.16867 -1.41737
lowerneck 1.13715 -14.3773 -8.66091
upperneck -2.50255 -19.2817 10.2113
head 0.993076 -9.68843 4.40278
rclavicle 1.81639e-014 5.725e-014
rhumerus -20.7632 4.72516 -85.7623
rradius 61.0343
rwrist -15.7847
rhand -19.3785 -24.4062
rfingers 7.12502
rthumb 6.93974 -54.2725
lclavicle 1.81639e-014 5.725e-014
lhumerus -39.2683 23.2439 68.5946
lradius 36.3455
lwrist 1.59352
lhand -29.4735 -10.0002
lfingers 7.12502
lthumb -2.80895 19.961
rfemur 0.522638 0.674537 38.0067
rtibia 17.5793
rfoot -11.459 2.70175
rtoes 20.9281
lfemur -27.185 1.9161 -2.78928
ltibia 60.7268
lfoot -6.30227 -0.6608
ltoes 4.50447
1523
root 20.7228 17.9127 10.2504 34.8383 -74.1087 -35.9952
lowerback 13.2845 1.02972 7.98513
upperback 0.934618 2.6549 3.16081
thorax -6.25962 1.07101 -1.62563
lowerneck 1.10615 -14.2588 -9.06433
upperneck -2.29065 -19.1338 10.7881
head 1.04909 -9.60717 4.17293
rclavicle -2.8128e-014 -3.37934e-015
rhumerus -20.9485 5.3305 -85.6181
rradius 61.9489
rwrist -16.1154
rhand -19.6247 -23.8675
rfingers 7.12502
rthumb 6.70216 -53.7414
lclavicle -2.8128e-014 -3.37934e-015
lhumerus -39.5831 23.6174 68.5801
lradius 35.8092
lwrist 1.23541
lhand -29.1543 -9.59331
lfingers 7.12502
lthumb -2.50077 20.3718
rfemur 1.14107 1.35166 37.8009
rtibia 17.4849
rfoot -11.6806 2.17394
rtoes 22.7981
lfemur -27.5319 0.807783 -3.13236
ltibia 59.0416
lfoot -6.60271 0.311057
ltoes 3.94651
1524
root 20.6244 17.9177 10.3102 34.4573 -74.7519 -35.17
lowerback 13.2442 1.00112 7.5549
upperback 0.814812 2.55634 3.00294
thorax -6.38476 1.03003 -1.53695
lowerneck 1.24349 -13.9664 -9.67325
upperneck -2.1801 -18.7727 11.1245
head 1.11553 -9.42772 4.37113
rclavicle -1.54804e-014 -3.45885e-014
rhumerus -21.0126 5.94636 -85.5663
rradius 62.5847
rwrist -16.1423
rhand -19.3737 -23.7365
rfingers 7.12502
rthumb 6.94441 -53.6026
lclavicle -1.54804e-014 -3.45885e-014
lhumerus -40.0181 24.2579 68.4384
lradius 35.2502
lwrist 0.996184
lhand -29.3906 -9.45303
lfingers 7.12502
lthumb -2.72893 20.5093
rfemur 1.21707 1.04984 36.9315
rtibia 17.3329
rfoot -11.6281 3.30687
rtoes 24.9073
lfemur -28.1925 0.347797 -3.86049
ltibia 57.1678
lfoot -6.83854 1.29047
ltoes 1.42389
1525
root 20.5133 17.8804 10.3532 36.8665 -74.1614 -37.9988
lowerback 13.617 0.722824 8.39748
upperback 0.997713 2.34169 3.30425
thorax -6.39398 0.899923 -1.6537
lowerneck 1.16082 -13.6262 -10.6133
upperneck -1.81649 -18.3592 11.7357
head 1.34 -9.21425 4.66668
rclavicle 6.13748e-015 -3.29983e-014
rhumerus -20.9749 6.28126 -85.525
rradius 63.1486
rwrist -16.4248
rhand -19.2261 -24.293
rfingers 7.12502
rthumb 7.08694 -54.1543
lclavicle 6.13748e-015 -3.29983e-014
lhumerus -40.1361 24.9378 68.4002
lradius 34.5647
lwrist 0.921085
lhand -29.7638 -9.41142
lfingers 7.12502
lthumb -3.08936 20.5459
rfemur 2.16203 0.92847 38.0512
rtibia 17.0271
rfoot -12.0188 2.45832
rtoes 21.6886
lfemur -28.357 -0.31722 -2.76753
ltibia 55.3853
lfoot -7.19724 1.88875
ltoes 0.68172
1526
root 20.4065 17.8798 10.41 36.5975 -74.684 -37.3052
lowerback 13.1973 0.703053 8.17175
upperback 1.11799 2.21449 3.04753
thorax -6.03868 0.860287 -1.76827
lowerneck 0.752485 -14.3023 -7.77392
upperneck -3.08398 -19.1053 9.71233
head 0.697842 -9.59942 4.10805
rclavicle 1.69712e-014 -6.55989e-015
rhumerus -20.7408 6.12664 -85.6109
rradius 63.444
rwrist -16.5538
rhand -19.1202 -24.8005
rfingers 7.12502
rthumb 7.18917 -54.6583
lclavicle 1.69712e-014 -6.55989e-015
lhumerus -39.9449 25.4866 68.4321
lradius 33.8922
lwrist 0.914674
lhand -29.5866 -9.12696
lfingers 7.12502
lthumb -2.91827 20.8328
rfemur 2.49828 1.05728 37.5266
rtibia 16.5728
rfoot -12.2581 1.92577
rtoes 18.1358
lfemur -28.9014 -1.06449 -3.36291
ltibia 53.349
lfoot -7.59717 3.27179
ltoes 1.17584
1527
root 20.282 17.8804 10.4234 38.7123 -74.9466 -39.2234
lowerback 12.8698 0.793892 7.92611
upperback 1.26523 2.25536 3.17969
thorax -5.70946 0.901212 -1.49032
lowerneck 0.733883 -13.7512 -9.66779
upperneck -2.35868 -18.4347 11.2447
head 1.12119 -9.24985 4.39478
rclavicle 6.67668e-014 0
rhumerus -20.2327 5.85236 -85.6196
rradius 63.2717
rwrist -16.5241
rhand -19.0266 -25.1507
rfingers 7.12502
rthumb 7.27948 -55.0055
lclavicle 6.67668e-014 0
lhumerus -39.8754 25.8911 68.5445
lradius 33.3628
lwrist 0.941835
lhand -29.1087 -8.87892
lfingers 7.12502
lthumb -2.45672 21.0867
rfemur 3.13561 1.9521 37.8591
rtibia 15.7903
rfoot -11.8398 2.50729
rtoes 22.2721
lfemur -29.2161 -1.59804 -2.95236
ltibia 51.2464
lfoot -7.81046 4.39121
ltoes 0.942867
